<svg width="390" height="66" xmlns="http://www.w3.org/2000/svg" xmlns:svg="http://www.w3.org/2000/svg" preserveAspectRatio="xMidYMid meet" version="1.0">
 <defs>
  <g id="svg_1"/>
  <clipPath id="b1316280fa">
   <path clip-rule="nonzero" d="m32,50.42l52.02,0l0,62.71l-52.02,0l0,-62.71zm0,0" id="svg_2"/>
  </clipPath>
  <clipPath id="2c3c80be5f">
   <path clip-rule="nonzero" d="m30.52,101l5.48,0l0,3l-5.48,0l0,-3zm0,0" id="svg_3"/>
  </clipPath>
  <clipPath id="7e293021f5">
   <path clip-rule="nonzero" d="m30.52,93l5.48,0l0,3l-5.48,0l0,-3zm0,0" id="svg_4"/>
  </clipPath>
  <clipPath id="c4be97b905">
   <path clip-rule="nonzero" d="m30.52,85l5.48,0l0,3l-5.48,0l0,-3zm0,0" id="svg_5"/>
  </clipPath>
  <clipPath id="471f0f4423">
   <path clip-rule="nonzero" d="m30.52,77l5.48,0l0,3l-5.48,0l0,-3zm0,0" id="svg_6"/>
  </clipPath>
  <clipPath id="5d38b12c67">
   <path clip-rule="nonzero" d="m30.52,69l5.48,0l0,3l-5.48,0l0,-3zm0,0" id="svg_7"/>
  </clipPath>
  <clipPath id="5dfe493daf">
   <path clip-rule="nonzero" d="m30.52,61l5.48,0l0,3l-5.48,0l0,-3zm0,0" id="svg_8"/>
  </clipPath>
  <clipPath id="0128c24332">
   <path clip-rule="nonzero" d="m32,50.42l46,0l0,57.58l-46,0l0,-57.58zm0,0" id="svg_9"/>
  </clipPath>
  <clipPath id="c29697c90a">
   <path clip-rule="nonzero" d="m30.52,53l5.48,0l0,3l-5.48,0l0,-3zm0,0" id="svg_10"/>
  </clipPath>
 </defs>
 <g class="layer">
  <title>Layer 1</title>
  <g clip-path="url(#b1316280fa)" id="svg_11" transform="translate(-30 -49)">
   <path d="m79.55,50.84l0,54.4c0,2.32 -1.9,4.21 -4.22,4.21l-42.6,0l0,4.27l44.91,0c3.64,0 6.61,-2.98 6.61,-6.61l0,-49.95c0,-2.96 -1.95,-5.5 -4.7,-6.32" fill="#fbc33c" fill-rule="nonzero" id="svg_12"/>
  </g>
  <g clip-path="url(#2c3c80be5f)" id="svg_13" transform="translate(-30 -49)">
   <path d="m35.98,103.3l0,-2.02l-5.43,0l0,2.02l5.43,0" fill="#fbc33c" fill-rule="nonzero" id="svg_14"/>
  </g>
  <g clip-path="url(#7e293021f5)" id="svg_15" transform="translate(-30 -49)">
   <path d="m35.98,95.34l0,-2.01l-5.43,0l0,2.01l5.43,0" fill="#fbc33c" fill-rule="nonzero" id="svg_16"/>
  </g>
  <g clip-path="url(#c4be97b905)" id="svg_17" transform="translate(-30 -49)">
   <path d="m35.98,87.39l0,-2.01l-5.43,0l0,2.01l5.43,0" fill="#fbc33c" fill-rule="nonzero" id="svg_18"/>
  </g>
  <g clip-path="url(#471f0f4423)" id="svg_19" transform="translate(-30 -49)">
   <path d="m35.98,79.45l0,-2.02l-5.43,0l0,2.02l5.43,0" fill="#fbc33c" fill-rule="nonzero" id="svg_20"/>
  </g>
  <g clip-path="url(#5d38b12c67)" id="svg_21" transform="translate(-30 -49)">
   <path d="m35.98,71.49l0,-2.01l-5.43,0l0,2.01l5.43,0" fill="#fbc33c" fill-rule="nonzero" id="svg_22"/>
  </g>
  <g clip-path="url(#5dfe493daf)" id="svg_23" transform="translate(-30 -49)">
   <path d="m35.98,63.54l0,-2.01l-5.43,0l0,2.01l5.43,0" fill="#fbc33c" fill-rule="nonzero" id="svg_24"/>
  </g>
  <g clip-path="url(#0128c24332)" id="svg_25" transform="translate(-30 -49)">
   <path d="m36.79,56.41l-4.06,0l0,4.31l4.06,0l0,3.64l-4.06,0l0,4.3l4.06,0l0,3.64l-4.06,0l0,4.32l4.06,0l0,3.64l-4.06,0l0,4.31l4.06,0l0,3.64l-4.06,0l0,4.31l4.06,0l0,3.64l-4.06,0l0,4.31l4.06,0l0,3.64l-4.06,0l0,3.33l42.6,0c1.21,0 2.19,-0.99 2.19,-2.2l0,-54.69l-44.79,0l0,2.22l4.06,0l0,3.64" fill="#1c2746" fill-rule="nonzero" id="svg_26"/>
  </g>
  <g clip-path="url(#c29697c90a)" id="svg_27" transform="translate(-30 -49)">
   <path d="m35.98,55.59l0,-2.01l-5.43,0l0,2.01l5.43,0" fill="#fbc33c" fill-rule="nonzero" id="svg_28"/>
  </g>
  <g fill="#1c2746" id="svg_29" transform="translate(-30 -49)">
   <g id="svg_30" transform="translate(101.028913, 73.518803)">
    <g id="svg_31">
     <path d="m0.86,-9.14c0,-1.8 0.38,-3.41 1.16,-4.81c0.78,-1.42 1.86,-2.52 3.26,-3.3c1.4,-0.79 2.98,-1.19 4.75,-1.19c2.16,0 4.01,0.58 5.55,1.72c1.54,1.14 2.57,2.7 3.09,4.67l-4.87,0c-0.37,-0.75 -0.89,-1.33 -1.55,-1.73c-0.67,-0.41 -1.43,-0.61 -2.28,-0.61c-1.37,0 -2.48,0.48 -3.33,1.44c-0.84,0.95 -1.26,2.22 -1.26,3.81c0,1.59 0.42,2.87 1.26,3.83c0.85,0.95 1.96,1.42 3.33,1.42c0.85,0 1.61,-0.2 2.28,-0.59c0.66,-0.41 1.18,-0.99 1.55,-1.75l4.87,0c-0.52,1.98 -1.55,3.53 -3.09,4.67c-1.54,1.12 -3.39,1.69 -5.55,1.69c-1.77,0 -3.35,-0.4 -4.75,-1.18c-1.4,-0.79 -2.48,-1.88 -3.26,-3.28c-0.78,-1.4 -1.16,-3.01 -1.16,-4.81zm0,0" id="svg_32"/>
    </g>
   </g>
  </g>
  <g fill="#1c2746" id="svg_33" transform="translate(-30 -49)">
   <g id="svg_34" transform="translate(123.208155, 73.518803)">
    <g id="svg_35">
     <path d="m17.41,-18.23l0,18.23l-4.46,0l0,-7.5l-6.9,0l0,7.5l-4.44,0l0,-18.23l4.44,0l0,7.14l6.9,0l0,-7.14l4.46,0zm0,0" id="svg_36"/>
    </g>
   </g>
  </g>
  <g fill="#1c2746" id="svg_37" transform="translate(-30 -49)">
   <g id="svg_38" transform="translate(144.582293, 73.518803)">
    <g id="svg_39">
     <path d="m6.05,-18.23l0,18.23l-4.44,0l0,-18.23l4.44,0zm0,0" id="svg_40"/>
    </g>
   </g>
  </g>
  <g fill="#1c2746" id="svg_41" transform="translate(-30 -49)">
   <g id="svg_42" transform="translate(154.63307, 73.518803)">
    <g id="svg_43">
     <path d="m8.2,0.19c-1.33,0 -2.53,-0.21 -3.59,-0.64c-1.06,-0.44 -1.9,-1.08 -2.53,-1.93c-0.63,-0.85 -0.95,-1.87 -0.99,-3.07l4.72,0c0.07,0.68 0.31,1.19 0.71,1.54c0.39,0.36 0.91,0.53 1.56,0.53c0.65,0 1.17,-0.14 1.55,-0.45c0.38,-0.3 0.57,-0.72 0.57,-1.26c0,-0.45 -0.15,-0.82 -0.45,-1.11c-0.3,-0.29 -0.68,-0.53 -1.12,-0.72c-0.44,-0.2 -1.07,-0.42 -1.88,-0.66c-1.18,-0.36 -2.14,-0.72 -2.89,-1.09c-0.74,-0.37 -1.38,-0.9 -1.92,-1.61c-0.53,-0.71 -0.8,-1.63 -0.8,-2.78c0,-1.7 0.61,-3.03 1.84,-3.99c1.23,-0.95 2.84,-1.43 4.82,-1.43c2,0 3.61,0.48 4.84,1.43c1.23,0.96 1.89,2.3 1.99,4.02l-4.82,0c-0.03,-0.6 -0.25,-1.06 -0.65,-1.39c-0.4,-0.35 -0.91,-0.52 -1.52,-0.52c-0.54,0 -0.98,0.15 -1.31,0.44c-0.33,0.28 -0.49,0.7 -0.49,1.23c0,0.59 0.28,1.05 0.83,1.38c0.55,0.32 1.42,0.68 2.6,1.06c1.17,0.4 2.13,0.78 2.87,1.14c0.74,0.37 1.38,0.9 1.91,1.6c0.54,0.68 0.81,1.57 0.81,2.67c0,1.03 -0.27,1.97 -0.8,2.83c-0.53,0.84 -1.3,1.52 -2.31,2.03c-1,0.5 -2.18,0.75 -3.55,0.75zm0,0" id="svg_44"/>
    </g>
   </g>
  </g>
  <g fill="#1c2746" id="svg_45" transform="translate(-30 -49)">
   <g id="svg_46" transform="translate(172.994572, 73.518803)">
    <g id="svg_47">
     <path d="m6.05,-14.67l0,3.69l5.95,0l0,3.42l-5.95,0l0,4l6.73,0l0,3.56l-11.17,0l0,-18.23l11.17,0l0,3.56l-6.73,0zm0,0" id="svg_48"/>
    </g>
   </g>
  </g>
  <g fill="#1c2746" id="svg_49" transform="translate(-30 -49)">
   <g id="svg_50" transform="translate(189.434225, 73.518803)">
    <g id="svg_51">
     <path d="m17.92,0l-4.44,0l-7.43,-11.25l0,11.25l-4.44,0l0,-18.23l4.44,0l7.43,11.29l0,-11.29l4.44,0l0,18.23zm0,0" id="svg_52"/>
    </g>
   </g>
  </g>
  <g fill="#1c2746" id="svg_53" transform="translate(-30 -49)">
   <g id="svg_54" transform="translate(211.353764, 73.518803)">
    <g id="svg_55">
     <path d="m17.41,-18.23l0,18.23l-4.46,0l0,-7.5l-6.9,0l0,7.5l-4.44,0l0,-18.23l4.44,0l0,7.14l6.9,0l0,-7.14l4.46,0zm0,0" id="svg_56"/>
    </g>
   </g>
  </g>
  <g fill="#1c2746" id="svg_57" transform="translate(-30 -49)">
   <g id="svg_58" transform="translate(232.727902, 73.518803)">
    <g id="svg_59">
     <path d="m12.95,-3.22l-6.79,0l-1.1,3.22l-4.64,0l6.6,-18.23l5.14,0l6.59,18.23l-4.7,0l-1.1,-3.22zm-1.14,-3.42l-2.25,-6.69l-2.23,6.69l4.48,0zm0,0" id="svg_60"/>
    </g>
   </g>
  </g>
  <g fill="#1c2746" id="svg_61" transform="translate(-30 -49)">
   <g id="svg_62" transform="translate(254.257867, 73.518803)">
    <g id="svg_63">
     <path d="m6.05,-3.42l5.83,0l0,3.42l-10.27,0l0,-18.23l4.44,0l0,14.81zm0,0" id="svg_64"/>
    </g>
   </g>
  </g>
  <g fill="#1c2746" id="svg_65" transform="translate(-30 -49)">
   <g id="svg_66" transform="translate(269.035375, 73.518803)">
    <g id="svg_67">
     <path d="m6.05,-14.67l0,3.69l5.95,0l0,3.42l-5.95,0l0,4l6.73,0l0,3.56l-11.17,0l0,-18.23l11.17,0l0,3.56l-6.73,0zm0,0" id="svg_68"/>
    </g>
   </g>
  </g>
  <g fill="#1c2746" id="svg_69">
   <g id="svg_70" transform="translate(285.475029, 73.518803)">
    <g id="svg_71"/>
   </g>
  </g>
  <g fill="#1c2746" id="svg_72" transform="translate(-30 -49)">
   <g id="svg_73" transform="translate(293.370211, 73.518803)">
    <g id="svg_74">
     <path d="m8.2,0.19c-1.33,0 -2.53,-0.21 -3.59,-0.64c-1.06,-0.44 -1.9,-1.08 -2.53,-1.93c-0.63,-0.85 -0.95,-1.87 -0.99,-3.07l4.72,0c0.07,0.68 0.31,1.19 0.71,1.54c0.39,0.36 0.91,0.53 1.56,0.53c0.65,0 1.17,-0.14 1.55,-0.45c0.38,-0.3 0.57,-0.72 0.57,-1.26c0,-0.45 -0.15,-0.82 -0.45,-1.11c-0.3,-0.29 -0.68,-0.53 -1.12,-0.72c-0.44,-0.2 -1.07,-0.42 -1.88,-0.66c-1.18,-0.36 -2.14,-0.72 -2.89,-1.09c-0.74,-0.37 -1.38,-0.9 -1.92,-1.61c-0.53,-0.71 -0.8,-1.63 -0.8,-2.78c0,-1.7 0.61,-3.03 1.84,-3.99c1.23,-0.95 2.84,-1.43 4.82,-1.43c2,0 3.61,0.48 4.84,1.43c1.23,0.96 1.89,2.3 1.99,4.02l-4.82,0c-0.03,-0.6 -0.25,-1.06 -0.65,-1.39c-0.4,-0.35 -0.91,-0.52 -1.52,-0.52c-0.54,0 -0.98,0.15 -1.31,0.44c-0.33,0.28 -0.49,0.7 -0.49,1.23c0,0.59 0.28,1.05 0.83,1.38c0.55,0.32 1.42,0.68 2.6,1.06c1.17,0.4 2.13,0.78 2.87,1.14c0.74,0.37 1.38,0.9 1.91,1.6c0.54,0.68 0.81,1.57 0.81,2.67c0,1.03 -0.27,1.97 -0.8,2.83c-0.53,0.84 -1.3,1.52 -2.31,2.03c-1,0.5 -2.18,0.75 -3.55,0.75zm0,0" id="svg_75"/>
    </g>
   </g>
  </g>
  <g fill="#1c2746" id="svg_76" transform="translate(-30 -49)">
   <g id="svg_77" transform="translate(311.7317, 73.518803)">
    <g id="svg_78">
     <path d="m0.86,-9.14c0,-1.8 0.38,-3.41 1.16,-4.81c0.78,-1.42 1.86,-2.52 3.26,-3.3c1.4,-0.79 2.98,-1.19 4.75,-1.19c2.16,0 4.01,0.58 5.55,1.72c1.54,1.14 2.57,2.7 3.09,4.67l-4.87,0c-0.37,-0.75 -0.89,-1.33 -1.55,-1.73c-0.67,-0.41 -1.43,-0.61 -2.28,-0.61c-1.37,0 -2.48,0.48 -3.33,1.44c-0.84,0.95 -1.26,2.22 -1.26,3.81c0,1.59 0.42,2.87 1.26,3.83c0.85,0.95 1.96,1.42 3.33,1.42c0.85,0 1.61,-0.2 2.28,-0.59c0.66,-0.41 1.18,-0.99 1.55,-1.75l4.87,0c-0.52,1.98 -1.55,3.53 -3.09,4.67c-1.54,1.12 -3.39,1.69 -5.55,1.69c-1.77,0 -3.35,-0.4 -4.75,-1.18c-1.4,-0.79 -2.48,-1.88 -3.26,-3.28c-0.78,-1.4 -1.16,-3.01 -1.16,-4.81zm0,0" id="svg_79"/>
    </g>
   </g>
  </g>
  <g fill="#1c2746" id="svg_80" transform="translate(-30 -49)">
   <g id="svg_81" transform="translate(333.910954, 73.518803)">
    <g id="svg_82">
     <path d="m17.41,-18.23l0,18.23l-4.46,0l0,-7.5l-6.9,0l0,7.5l-4.44,0l0,-18.23l4.44,0l0,7.14l6.9,0l0,-7.14l4.46,0zm0,0" id="svg_83"/>
    </g>
   </g>
  </g>
  <g fill="#1c2746" id="svg_84" transform="translate(-30 -49)">
   <g id="svg_85" transform="translate(355.285105, 73.518803)">
    <g id="svg_86">
     <path d="m10.23,0.19c-1.71,0 -3.29,-0.4 -4.71,-1.19c-1.43,-0.8 -2.57,-1.91 -3.41,-3.34c-0.84,-1.44 -1.25,-3.05 -1.25,-4.83c0,-1.78 0.41,-3.38 1.25,-4.8c0.84,-1.41 1.98,-2.52 3.41,-3.31c1.42,-0.8 3,-1.2 4.71,-1.2c1.71,0 3.28,0.4 4.71,1.2c1.44,0.79 2.56,1.9 3.37,3.31c0.82,1.42 1.24,3.02 1.24,4.8c0,1.78 -0.42,3.39 -1.25,4.83c-0.83,1.43 -1.95,2.54 -3.38,3.34c-1.42,0.79 -2.98,1.19 -4.69,1.19zm0,-4.07c1.45,0 2.61,-0.48 3.49,-1.45c0.87,-0.97 1.31,-2.25 1.31,-3.84c0,-1.6 -0.44,-2.88 -1.31,-3.85c-0.88,-0.96 -2.04,-1.45 -3.49,-1.45c-1.46,0 -2.64,0.48 -3.51,1.44c-0.88,0.95 -1.31,2.23 -1.31,3.86c0,1.62 0.43,2.9 1.31,3.86c0.87,0.96 2.05,1.43 3.51,1.43zm0,0" id="svg_87"/>
    </g>
   </g>
  </g>
  <g fill="#1c2746" id="svg_88" transform="translate(-30 -49)">
   <g id="svg_89" transform="translate(378.087666, 73.518803)">
    <g id="svg_90">
     <path d="m10.23,0.19c-1.71,0 -3.29,-0.4 -4.71,-1.19c-1.43,-0.8 -2.57,-1.91 -3.41,-3.34c-0.84,-1.44 -1.25,-3.05 -1.25,-4.83c0,-1.78 0.41,-3.38 1.25,-4.8c0.84,-1.41 1.98,-2.52 3.41,-3.31c1.42,-0.8 3,-1.2 4.71,-1.2c1.71,0 3.28,0.4 4.71,1.2c1.44,0.79 2.56,1.9 3.37,3.31c0.82,1.42 1.24,3.02 1.24,4.8c0,1.78 -0.42,3.39 -1.25,4.83c-0.83,1.43 -1.95,2.54 -3.38,3.34c-1.42,0.79 -2.98,1.19 -4.69,1.19zm0,-4.07c1.45,0 2.61,-0.48 3.49,-1.45c0.87,-0.97 1.31,-2.25 1.31,-3.84c0,-1.6 -0.44,-2.88 -1.31,-3.85c-0.88,-0.96 -2.04,-1.45 -3.49,-1.45c-1.46,0 -2.64,0.48 -3.51,1.44c-0.88,0.95 -1.31,2.23 -1.31,3.86c0,1.62 0.43,2.9 1.31,3.86c0.87,0.96 2.05,1.43 3.51,1.43zm0,0" id="svg_91"/>
    </g>
   </g>
  </g>
  <g fill="#1c2746" id="svg_92" transform="translate(-30 -49)">
   <g id="svg_93" transform="translate(400.890227, 73.518803)">
    <g id="svg_94">
     <path d="m6.05,-3.42l5.83,0l0,3.42l-10.27,0l0,-18.23l4.44,0l0,14.81zm0,0" id="svg_95"/>
    </g>
   </g>
  </g>
  <g fill="#1c2746" id="svg_96" transform="translate(-30 -49)">
   <g id="svg_97" transform="translate(101.864982, 108.25693)">
    <g id="svg_98">
     <path d="m4.41,-2.5l4.25,0l0,2.5l-7.49,0l0,-13.3l3.24,0l0,10.8zm0,0" id="svg_99"/>
    </g>
   </g>
  </g>
  <g fill="#1c2746" id="svg_100" transform="translate(-30 -49)">
   <g id="svg_101" transform="translate(118.881523, 108.25693)">
    <g id="svg_102">
     <path d="m4.41,-13.3l0,13.3l-3.24,0l0,-13.3l3.24,0zm0,0" id="svg_103"/>
    </g>
   </g>
  </g>
  <g fill="#1c2746" id="svg_104" transform="translate(-30 -49)">
   <g id="svg_105" transform="translate(132.454541, 108.25693)">
    <g id="svg_106">
     <path d="m10.73,-13.3l0,2.6l-3.51,0l0,10.7l-3.24,0l0,-10.7l-3.53,0l0,-2.6l10.28,0zm0,0" id="svg_107"/>
    </g>
   </g>
  </g>
  <g fill="#1c2746" id="svg_108" transform="translate(-30 -49)">
   <g id="svg_109" transform="translate(151.628027, 108.25693)">
    <g id="svg_110">
     <path d="m10.73,-13.3l0,2.6l-3.51,0l0,10.7l-3.24,0l0,-10.7l-3.53,0l0,-2.6l10.28,0zm0,0" id="svg_111"/>
    </g>
   </g>
  </g>
  <g fill="#1c2746" id="svg_112" transform="translate(-30 -49)">
   <g id="svg_113" transform="translate(170.80151, 108.25693)">
    <g id="svg_114">
     <path d="m4.41,-2.5l4.25,0l0,2.5l-7.49,0l0,-13.3l3.24,0l0,10.8zm0,0" id="svg_115"/>
    </g>
   </g>
  </g>
  <g fill="#1c2746" id="svg_116" transform="translate(-30 -49)">
   <g id="svg_117" transform="translate(187.81805, 108.25693)">
    <g id="svg_118">
     <path d="m4.41,-10.7l0,2.68l4.34,0l0,2.5l-4.34,0l0,2.93l4.9,0l0,2.59l-8.14,0l0,-13.3l8.14,0l0,2.6l-4.9,0zm0,0" id="svg_119"/>
    </g>
   </g>
  </g>
  <g fill="#1c2746" id="svg_120">
   <g id="svg_121" transform="translate(206.045504, 108.25693)">
    <g id="svg_122"/>
   </g>
  </g>
  <g fill="#1c2746" id="svg_123" transform="translate(-30 -49)">
   <g id="svg_124" transform="translate(218.048106, 108.25693)">
    <g id="svg_125">
     <path d="m9.22,-6.81c0.77,0.15 1.39,0.54 1.86,1.14c0.47,0.6 0.7,1.29 0.7,2.06c0,1.11 -0.39,1.98 -1.17,2.64c-0.77,0.65 -1.86,0.97 -3.25,0.97l-6.19,0l0,-13.3l5.99,0c1.35,0 2.41,0.32 3.17,0.94c0.76,0.62 1.14,1.45 1.14,2.52c0,0.78 -0.2,1.43 -0.61,1.95c-0.41,0.51 -0.95,0.87 -1.64,1.08zm-4.81,-1.11l2.12,0c0.53,0 0.94,-0.12 1.22,-0.35c0.29,-0.22 0.44,-0.57 0.44,-1.03c0,-0.45 -0.15,-0.8 -0.44,-1.04c-0.28,-0.24 -0.69,-0.36 -1.22,-0.36l-2.12,0l0,2.78zm2.39,5.31c0.54,0 0.95,-0.12 1.25,-0.37c0.3,-0.25 0.45,-0.61 0.45,-1.07c0,-0.47 -0.16,-0.83 -0.47,-1.09c-0.3,-0.27 -0.73,-0.41 -1.26,-0.41l-2.36,0l0,2.94l2.39,0zm0,0" id="svg_126"/>
    </g>
   </g>
  </g>
  <g fill="#1c2746" id="svg_127" transform="translate(-30 -49)">
   <g id="svg_128" transform="translate(238.50819, 108.25693)">
    <g id="svg_129">
     <path d="m4.41,-2.5l4.25,0l0,2.5l-7.49,0l0,-13.3l3.24,0l0,10.8zm0,0" id="svg_130"/>
    </g>
   </g>
  </g>
  <g fill="#1c2746" id="svg_131" transform="translate(-30 -49)">
   <g id="svg_132" transform="translate(255.524737, 108.25693)">
    <g id="svg_133">
     <path d="m9.45,-2.34l-4.97,0l-0.79,2.34l-3.39,0l4.81,-13.3l3.75,0l4.81,13.3l-3.42,0l-0.8,-2.34zm-0.84,-2.5l-1.64,-4.88l-1.63,4.88l3.27,0zm0,0" id="svg_134"/>
    </g>
   </g>
  </g>
  <g fill="#1c2746" id="svg_135" transform="translate(-30 -49)">
   <g id="svg_136" transform="translate(277.460634, 108.25693)">
    <g id="svg_137">
     <path d="m0.63,-6.67c0,-1.31 0.28,-2.48 0.84,-3.5c0.57,-1.03 1.36,-1.83 2.37,-2.41c1.02,-0.58 2.18,-0.87 3.47,-0.87c1.57,0 2.92,0.41 4.05,1.25c1.12,0.83 1.87,1.97 2.25,3.42l-3.55,0c-0.27,-0.56 -0.65,-0.99 -1.14,-1.27c-0.48,-0.29 -1.03,-0.43 -1.65,-0.43c-1,0 -1.8,0.35 -2.43,1.04c-0.61,0.69 -0.92,1.61 -0.92,2.77c0,1.17 0.31,2.1 0.92,2.79c0.63,0.69 1.43,1.04 2.43,1.04c0.62,0 1.17,-0.15 1.65,-0.44c0.49,-0.29 0.87,-0.71 1.14,-1.27l3.55,0c-0.38,1.44 -1.13,2.58 -2.25,3.41c-1.13,0.82 -2.48,1.23 -4.05,1.23c-1.29,0 -2.45,-0.28 -3.47,-0.86c-1.01,-0.57 -1.8,-1.36 -2.37,-2.39c-0.56,-1.03 -0.84,-2.2 -0.84,-3.51zm0,0" id="svg_138"/>
    </g>
   </g>
  </g>
  <g fill="#1c2746" id="svg_139" transform="translate(-30 -49)">
   <g id="svg_140" transform="translate(299.869539, 108.25693)">
    <g id="svg_141">
     <path d="m8.88,0l-4.47,-5.88l0,5.88l-3.24,0l0,-13.3l3.24,0l0,5.83l4.43,-5.83l3.82,0l-5.16,6.52l5.34,6.78l-3.96,0zm0,0" id="svg_142"/>
    </g>
   </g>
  </g>
  <g fill="#1c2746" id="svg_143">
   <g id="svg_144" transform="translate(321.04861, 108.25693)">
    <g id="svg_145"/>
   </g>
  </g>
  <g fill="#1c2746" id="svg_146" transform="translate(-30 -49)">
   <g id="svg_147" transform="translate(333.051219, 108.25693)">
    <g id="svg_148">
     <path d="m9.22,-6.81c0.77,0.15 1.39,0.54 1.86,1.14c0.47,0.6 0.7,1.29 0.7,2.06c0,1.11 -0.39,1.98 -1.17,2.64c-0.77,0.65 -1.86,0.97 -3.25,0.97l-6.19,0l0,-13.3l5.99,0c1.35,0 2.41,0.32 3.17,0.94c0.76,0.62 1.14,1.45 1.14,2.52c0,0.78 -0.2,1.43 -0.61,1.95c-0.41,0.51 -0.95,0.87 -1.64,1.08zm-4.81,-1.11l2.12,0c0.53,0 0.94,-0.12 1.22,-0.35c0.29,-0.22 0.44,-0.57 0.44,-1.03c0,-0.45 -0.15,-0.8 -0.44,-1.04c-0.28,-0.24 -0.69,-0.36 -1.22,-0.36l-2.12,0l0,2.78zm2.39,5.31c0.54,0 0.95,-0.12 1.25,-0.37c0.3,-0.25 0.45,-0.61 0.45,-1.07c0,-0.47 -0.16,-0.83 -0.47,-1.09c-0.3,-0.27 -0.73,-0.41 -1.26,-0.41l-2.36,0l0,2.94l2.39,0zm0,0" id="svg_149"/>
    </g>
   </g>
  </g>
  <g fill="#1c2746" id="svg_150" transform="translate(-30 -49)">
   <g id="svg_151" transform="translate(353.51129, 108.25693)">
    <g id="svg_152">
     <path d="m7.47,0.13c-1.25,0 -2.4,-0.29 -3.44,-0.86c-1.04,-0.59 -1.87,-1.4 -2.48,-2.44c-0.62,-1.04 -0.92,-2.21 -0.92,-3.52c0,-1.3 0.3,-2.47 0.92,-3.5c0.61,-1.03 1.44,-1.83 2.48,-2.42c1.04,-0.58 2.19,-0.87 3.44,-0.87c1.25,0 2.39,0.29 3.42,0.87c1.04,0.59 1.86,1.39 2.47,2.42c0.6,1.03 0.91,2.2 0.91,3.5c0,1.31 -0.31,2.48 -0.93,3.52c-0.6,1.04 -1.42,1.85 -2.45,2.44c-1.03,0.57 -2.17,0.86 -3.42,0.86zm0,-2.96c1.05,0 1.89,-0.35 2.53,-1.05c0.64,-0.7 0.97,-1.64 0.97,-2.81c0,-1.17 -0.33,-2.11 -0.97,-2.81c-0.64,-0.7 -1.48,-1.05 -2.53,-1.05c-1.08,0 -1.93,0.35 -2.58,1.05c-0.64,0.69 -0.95,1.62 -0.95,2.81c0,1.18 0.31,2.12 0.95,2.81c0.65,0.7 1.5,1.05 2.58,1.05zm0,0" id="svg_153"/>
    </g>
   </g>
  </g>
  <g fill="#1c2746" id="svg_154" transform="translate(-30 -49)">
   <g id="svg_155" transform="translate(376.374282, 108.25693)">
    <g id="svg_156">
     <path d="m7.47,0.13c-1.25,0 -2.4,-0.29 -3.44,-0.86c-1.04,-0.59 -1.87,-1.4 -2.48,-2.44c-0.62,-1.04 -0.92,-2.21 -0.92,-3.52c0,-1.3 0.3,-2.47 0.92,-3.5c0.61,-1.03 1.44,-1.83 2.48,-2.42c1.04,-0.58 2.19,-0.87 3.44,-0.87c1.25,0 2.39,0.29 3.42,0.87c1.04,0.59 1.86,1.39 2.47,2.42c0.6,1.03 0.91,2.2 0.91,3.5c0,1.31 -0.31,2.48 -0.93,3.52c-0.6,1.04 -1.42,1.85 -2.45,2.44c-1.03,0.57 -2.17,0.86 -3.42,0.86zm0,-2.96c1.05,0 1.89,-0.35 2.53,-1.05c0.64,-0.7 0.97,-1.64 0.97,-2.81c0,-1.17 -0.33,-2.11 -0.97,-2.81c-0.64,-0.7 -1.48,-1.05 -2.53,-1.05c-1.08,0 -1.93,0.35 -2.58,1.05c-0.64,0.69 -0.95,1.62 -0.95,2.81c0,1.18 0.31,2.12 0.95,2.81c0.65,0.7 1.5,1.05 2.58,1.05zm0,0" id="svg_157"/>
    </g>
   </g>
  </g>
  <g fill="#1c2746" id="svg_158" transform="translate(-30 -49)">
   <g id="svg_159" transform="translate(399.237274, 108.25693)">
    <g id="svg_160">
     <path d="m8.88,0l-4.47,-5.88l0,5.88l-3.24,0l0,-13.3l3.24,0l0,5.83l4.43,-5.83l3.82,0l-5.16,6.52l5.34,6.78l-3.96,0zm0,0" id="svg_161"/>
    </g>
   </g>
  </g>
 </g>
</svg>