<svg xmlns="http://www.w3.org/2000/svg" xmlns:xlink="http://www.w3.org/1999/xlink" width="600" zoomAndPan="magnify" viewBox="0 0 450 165.000002" height="220" preserveAspectRatio="xMidYMid meet" version="1.0"><defs><g/><clipPath id="b1316280fa"><path d="M 32 50.417969 L 84.015625 50.417969 L 84.015625 113.128906 L 32 113.128906 Z M 32 50.417969 " clip-rule="nonzero"/></clipPath><clipPath id="2c3c80be5f"><path d="M 30.523438 101 L 36 101 L 36 104 L 30.523438 104 Z M 30.523438 101 " clip-rule="nonzero"/></clipPath><clipPath id="7e293021f5"><path d="M 30.523438 93 L 36 93 L 36 96 L 30.523438 96 Z M 30.523438 93 " clip-rule="nonzero"/></clipPath><clipPath id="c4be97b905"><path d="M 30.523438 85 L 36 85 L 36 88 L 30.523438 88 Z M 30.523438 85 " clip-rule="nonzero"/></clipPath><clipPath id="471f0f4423"><path d="M 30.523438 77 L 36 77 L 36 80 L 30.523438 80 Z M 30.523438 77 " clip-rule="nonzero"/></clipPath><clipPath id="5d38b12c67"><path d="M 30.523438 69 L 36 69 L 36 72 L 30.523438 72 Z M 30.523438 69 " clip-rule="nonzero"/></clipPath><clipPath id="5dfe493daf"><path d="M 30.523438 61 L 36 61 L 36 64 L 30.523438 64 Z M 30.523438 61 " clip-rule="nonzero"/></clipPath><clipPath id="0128c24332"><path d="M 32 50.417969 L 78 50.417969 L 78 108 L 32 108 Z M 32 50.417969 " clip-rule="nonzero"/></clipPath><clipPath id="c29697c90a"><path d="M 30.523438 53 L 36 53 L 36 56 L 30.523438 56 Z M 30.523438 53 " clip-rule="nonzero"/></clipPath></defs><g clip-path="url(#b1316280fa)"><path fill="#fbc33c" d="M 79.546875 50.835938 L 79.546875 105.238281 C 79.546875 107.5625 77.652344 109.453125 75.332031 109.453125 L 32.734375 109.453125 L 32.734375 113.71875 L 77.636719 113.71875 C 81.28125 113.71875 84.246094 110.742188 84.246094 107.109375 L 84.246094 57.160156 C 84.246094 54.199219 82.296875 51.65625 79.546875 50.835938 " fill-opacity="1" fill-rule="nonzero"/></g><g clip-path="url(#2c3c80be5f)"><path fill="#fbc33c" d="M 35.980469 103.300781 L 35.980469 101.277344 L 30.550781 101.277344 L 30.550781 103.300781 L 35.980469 103.300781 " fill-opacity="1" fill-rule="nonzero"/></g><g clip-path="url(#7e293021f5)"><path fill="#fbc33c" d="M 35.980469 95.34375 L 35.980469 93.328125 L 30.550781 93.328125 L 30.550781 95.34375 L 35.980469 95.34375 " fill-opacity="1" fill-rule="nonzero"/></g><g clip-path="url(#c4be97b905)"><path fill="#fbc33c" d="M 35.980469 87.394531 L 35.980469 85.382812 L 30.550781 85.382812 L 30.550781 87.394531 L 35.980469 87.394531 " fill-opacity="1" fill-rule="nonzero"/></g><g clip-path="url(#471f0f4423)"><path fill="#fbc33c" d="M 35.980469 79.449219 L 35.980469 77.433594 L 30.550781 77.433594 L 30.550781 79.449219 L 35.980469 79.449219 " fill-opacity="1" fill-rule="nonzero"/></g><g clip-path="url(#5d38b12c67)"><path fill="#fbc33c" d="M 35.980469 71.492188 L 35.980469 69.476562 L 30.550781 69.476562 L 30.550781 71.492188 L 35.980469 71.492188 " fill-opacity="1" fill-rule="nonzero"/></g><g clip-path="url(#5dfe493daf)"><path fill="#fbc33c" d="M 35.980469 63.539062 L 35.980469 61.53125 L 30.550781 61.53125 L 30.550781 63.539062 L 35.980469 63.539062 " fill-opacity="1" fill-rule="nonzero"/></g><g clip-path="url(#0128c24332)"><path fill="#1c2746" d="M 36.792969 56.40625 L 32.734375 56.40625 L 32.734375 60.71875 L 36.792969 60.71875 L 36.792969 64.355469 L 32.734375 64.355469 L 32.734375 68.664062 L 36.792969 68.664062 L 36.792969 72.300781 L 32.734375 72.300781 L 32.734375 76.621094 L 36.792969 76.621094 L 36.792969 80.257812 L 32.734375 80.257812 L 32.734375 84.570312 L 36.792969 84.570312 L 36.792969 88.207031 L 32.734375 88.207031 L 32.734375 92.515625 L 36.792969 92.515625 L 36.792969 96.15625 L 32.734375 96.15625 L 32.734375 100.46875 L 36.792969 100.46875 L 36.792969 104.109375 L 32.734375 104.109375 L 32.734375 107.4375 L 75.332031 107.4375 C 76.542969 107.4375 77.523438 106.449219 77.523438 105.238281 L 77.523438 50.550781 L 32.734375 50.550781 L 32.734375 52.769531 L 36.792969 52.769531 L 36.792969 56.40625 " fill-opacity="1" fill-rule="nonzero"/></g><g clip-path="url(#c29697c90a)"><path fill="#fbc33c" d="M 35.980469 55.59375 L 35.980469 53.582031 L 30.550781 53.582031 L 30.550781 55.59375 L 35.980469 55.59375 " fill-opacity="1" fill-rule="nonzero"/></g><g fill="#1c2746" fill-opacity="1"><g transform="translate(101.028913, 73.518803)"><g><path d="M 0.859375 -9.140625 C 0.859375 -10.941406 1.242188 -12.546875 2.015625 -13.953125 C 2.796875 -15.367188 3.882812 -16.46875 5.28125 -17.25 C 6.675781 -18.039062 8.257812 -18.4375 10.03125 -18.4375 C 12.1875 -18.4375 14.035156 -17.863281 15.578125 -16.71875 C 17.117188 -15.582031 18.148438 -14.023438 18.671875 -12.046875 L 13.796875 -12.046875 C 13.429688 -12.804688 12.914062 -13.382812 12.25 -13.78125 C 11.582031 -14.1875 10.820312 -14.390625 9.96875 -14.390625 C 8.601562 -14.390625 7.492188 -13.910156 6.640625 -12.953125 C 5.796875 -12.003906 5.375 -10.734375 5.375 -9.140625 C 5.375 -7.546875 5.796875 -6.269531 6.640625 -5.3125 C 7.492188 -4.363281 8.601562 -3.890625 9.96875 -3.890625 C 10.820312 -3.890625 11.582031 -4.085938 12.25 -4.484375 C 12.914062 -4.890625 13.429688 -5.472656 13.796875 -6.234375 L 18.671875 -6.234375 C 18.148438 -4.253906 17.117188 -2.695312 15.578125 -1.5625 C 14.035156 -0.4375 12.1875 0.125 10.03125 0.125 C 8.257812 0.125 6.675781 -0.265625 5.28125 -1.046875 C 3.882812 -1.835938 2.796875 -2.929688 2.015625 -4.328125 C 1.242188 -5.734375 0.859375 -7.335938 0.859375 -9.140625 Z M 0.859375 -9.140625 "/></g></g></g><g fill="#1c2746" fill-opacity="1"><g transform="translate(123.208155, 73.518803)"><g><path d="M 17.40625 -18.234375 L 17.40625 0 L 12.953125 0 L 12.953125 -7.5 L 6.046875 -7.5 L 6.046875 0 L 1.609375 0 L 1.609375 -18.234375 L 6.046875 -18.234375 L 6.046875 -11.09375 L 12.953125 -11.09375 L 12.953125 -18.234375 Z M 17.40625 -18.234375 "/></g></g></g><g fill="#1c2746" fill-opacity="1"><g transform="translate(144.582293, 73.518803)"><g><path d="M 6.046875 -18.234375 L 6.046875 0 L 1.609375 0 L 1.609375 -18.234375 Z M 6.046875 -18.234375 "/></g></g></g><g fill="#1c2746" fill-opacity="1"><g transform="translate(154.63307, 73.518803)"><g><path d="M 8.203125 0.1875 C 6.867188 0.1875 5.671875 -0.0234375 4.609375 -0.453125 C 3.554688 -0.890625 2.710938 -1.53125 2.078125 -2.375 C 1.453125 -3.226562 1.125 -4.253906 1.09375 -5.453125 L 5.8125 -5.453125 C 5.882812 -4.773438 6.117188 -4.257812 6.515625 -3.90625 C 6.910156 -3.550781 7.429688 -3.375 8.078125 -3.375 C 8.734375 -3.375 9.25 -3.523438 9.625 -3.828125 C 10.007812 -4.128906 10.203125 -4.550781 10.203125 -5.09375 C 10.203125 -5.539062 10.050781 -5.910156 9.75 -6.203125 C 9.445312 -6.492188 9.070312 -6.734375 8.625 -6.921875 C 8.1875 -7.117188 7.5625 -7.335938 6.75 -7.578125 C 5.570312 -7.941406 4.609375 -8.304688 3.859375 -8.671875 C 3.117188 -9.035156 2.476562 -9.570312 1.9375 -10.28125 C 1.40625 -10.988281 1.140625 -11.914062 1.140625 -13.0625 C 1.140625 -14.757812 1.753906 -16.085938 2.984375 -17.046875 C 4.210938 -18.003906 5.816406 -18.484375 7.796875 -18.484375 C 9.796875 -18.484375 11.410156 -18.003906 12.640625 -17.046875 C 13.867188 -16.085938 14.53125 -14.75 14.625 -13.03125 L 9.8125 -13.03125 C 9.78125 -13.625 9.5625 -14.085938 9.15625 -14.421875 C 8.757812 -14.765625 8.253906 -14.9375 7.640625 -14.9375 C 7.097656 -14.9375 6.660156 -14.789062 6.328125 -14.5 C 6.003906 -14.21875 5.84375 -13.804688 5.84375 -13.265625 C 5.84375 -12.679688 6.117188 -12.222656 6.671875 -11.890625 C 7.222656 -11.566406 8.085938 -11.210938 9.265625 -10.828125 C 10.441406 -10.429688 11.398438 -10.050781 12.140625 -9.6875 C 12.878906 -9.320312 13.515625 -8.789062 14.046875 -8.09375 C 14.585938 -7.40625 14.859375 -6.515625 14.859375 -5.421875 C 14.859375 -4.390625 14.59375 -3.445312 14.0625 -2.59375 C 13.53125 -1.75 12.757812 -1.070312 11.75 -0.5625 C 10.75 -0.0625 9.566406 0.1875 8.203125 0.1875 Z M 8.203125 0.1875 "/></g></g></g><g fill="#1c2746" fill-opacity="1"><g transform="translate(172.994572, 73.518803)"><g><path d="M 6.046875 -14.671875 L 6.046875 -10.984375 L 12 -10.984375 L 12 -7.5625 L 6.046875 -7.5625 L 6.046875 -3.5625 L 12.78125 -3.5625 L 12.78125 0 L 1.609375 0 L 1.609375 -18.234375 L 12.78125 -18.234375 L 12.78125 -14.671875 Z M 6.046875 -14.671875 "/></g></g></g><g fill="#1c2746" fill-opacity="1"><g transform="translate(189.434225, 73.518803)"><g><path d="M 17.921875 0 L 13.484375 0 L 6.046875 -11.25 L 6.046875 0 L 1.609375 0 L 1.609375 -18.234375 L 6.046875 -18.234375 L 13.484375 -6.9375 L 13.484375 -18.234375 L 17.921875 -18.234375 Z M 17.921875 0 "/></g></g></g><g fill="#1c2746" fill-opacity="1"><g transform="translate(211.353764, 73.518803)"><g><path d="M 17.40625 -18.234375 L 17.40625 0 L 12.953125 0 L 12.953125 -7.5 L 6.046875 -7.5 L 6.046875 0 L 1.609375 0 L 1.609375 -18.234375 L 6.046875 -18.234375 L 6.046875 -11.09375 L 12.953125 -11.09375 L 12.953125 -18.234375 Z M 17.40625 -18.234375 "/></g></g></g><g fill="#1c2746" fill-opacity="1"><g transform="translate(232.727902, 73.518803)"><g><path d="M 12.953125 -3.21875 L 6.15625 -3.21875 L 5.0625 0 L 0.421875 0 L 7.015625 -18.234375 L 12.15625 -18.234375 L 18.75 0 L 14.046875 0 Z M 11.8125 -6.640625 L 9.5625 -13.328125 L 7.328125 -6.640625 Z M 11.8125 -6.640625 "/></g></g></g><g fill="#1c2746" fill-opacity="1"><g transform="translate(254.257867, 73.518803)"><g><path d="M 6.046875 -3.421875 L 11.875 -3.421875 L 11.875 0 L 1.609375 0 L 1.609375 -18.234375 L 6.046875 -18.234375 Z M 6.046875 -3.421875 "/></g></g></g><g fill="#1c2746" fill-opacity="1"><g transform="translate(269.035375, 73.518803)"><g><path d="M 6.046875 -14.671875 L 6.046875 -10.984375 L 12 -10.984375 L 12 -7.5625 L 6.046875 -7.5625 L 6.046875 -3.5625 L 12.78125 -3.5625 L 12.78125 0 L 1.609375 0 L 1.609375 -18.234375 L 12.78125 -18.234375 L 12.78125 -14.671875 Z M 6.046875 -14.671875 "/></g></g></g><g fill="#1c2746" fill-opacity="1"><g transform="translate(285.475029, 73.518803)"><g/></g></g><g fill="#1c2746" fill-opacity="1"><g transform="translate(293.370211, 73.518803)"><g><path d="M 8.203125 0.1875 C 6.867188 0.1875 5.671875 -0.0234375 4.609375 -0.453125 C 3.554688 -0.890625 2.710938 -1.53125 2.078125 -2.375 C 1.453125 -3.226562 1.125 -4.253906 1.09375 -5.453125 L 5.8125 -5.453125 C 5.882812 -4.773438 6.117188 -4.257812 6.515625 -3.90625 C 6.910156 -3.550781 7.429688 -3.375 8.078125 -3.375 C 8.734375 -3.375 9.25 -3.523438 9.625 -3.828125 C 10.007812 -4.128906 10.203125 -4.550781 10.203125 -5.09375 C 10.203125 -5.539062 10.050781 -5.910156 9.75 -6.203125 C 9.445312 -6.492188 9.070312 -6.734375 8.625 -6.921875 C 8.1875 -7.117188 7.5625 -7.335938 6.75 -7.578125 C 5.570312 -7.941406 4.609375 -8.304688 3.859375 -8.671875 C 3.117188 -9.035156 2.476562 -9.570312 1.9375 -10.28125 C 1.40625 -10.988281 1.140625 -11.914062 1.140625 -13.0625 C 1.140625 -14.757812 1.753906 -16.085938 2.984375 -17.046875 C 4.210938 -18.003906 5.816406 -18.484375 7.796875 -18.484375 C 9.796875 -18.484375 11.410156 -18.003906 12.640625 -17.046875 C 13.867188 -16.085938 14.53125 -14.75 14.625 -13.03125 L 9.8125 -13.03125 C 9.78125 -13.625 9.5625 -14.085938 9.15625 -14.421875 C 8.757812 -14.765625 8.253906 -14.9375 7.640625 -14.9375 C 7.097656 -14.9375 6.660156 -14.789062 6.328125 -14.5 C 6.003906 -14.21875 5.84375 -13.804688 5.84375 -13.265625 C 5.84375 -12.679688 6.117188 -12.222656 6.671875 -11.890625 C 7.222656 -11.566406 8.085938 -11.210938 9.265625 -10.828125 C 10.441406 -10.429688 11.398438 -10.050781 12.140625 -9.6875 C 12.878906 -9.320312 13.515625 -8.789062 14.046875 -8.09375 C 14.585938 -7.40625 14.859375 -6.515625 14.859375 -5.421875 C 14.859375 -4.390625 14.59375 -3.445312 14.0625 -2.59375 C 13.53125 -1.75 12.757812 -1.070312 11.75 -0.5625 C 10.75 -0.0625 9.566406 0.1875 8.203125 0.1875 Z M 8.203125 0.1875 "/></g></g></g><g fill="#1c2746" fill-opacity="1"><g transform="translate(311.7317, 73.518803)"><g><path d="M 0.859375 -9.140625 C 0.859375 -10.941406 1.242188 -12.546875 2.015625 -13.953125 C 2.796875 -15.367188 3.882812 -16.46875 5.28125 -17.25 C 6.675781 -18.039062 8.257812 -18.4375 10.03125 -18.4375 C 12.1875 -18.4375 14.035156 -17.863281 15.578125 -16.71875 C 17.117188 -15.582031 18.148438 -14.023438 18.671875 -12.046875 L 13.796875 -12.046875 C 13.429688 -12.804688 12.914062 -13.382812 12.25 -13.78125 C 11.582031 -14.1875 10.820312 -14.390625 9.96875 -14.390625 C 8.601562 -14.390625 7.492188 -13.910156 6.640625 -12.953125 C 5.796875 -12.003906 5.375 -10.734375 5.375 -9.140625 C 5.375 -7.546875 5.796875 -6.269531 6.640625 -5.3125 C 7.492188 -4.363281 8.601562 -3.890625 9.96875 -3.890625 C 10.820312 -3.890625 11.582031 -4.085938 12.25 -4.484375 C 12.914062 -4.890625 13.429688 -5.472656 13.796875 -6.234375 L 18.671875 -6.234375 C 18.148438 -4.253906 17.117188 -2.695312 15.578125 -1.5625 C 14.035156 -0.4375 12.1875 0.125 10.03125 0.125 C 8.257812 0.125 6.675781 -0.265625 5.28125 -1.046875 C 3.882812 -1.835938 2.796875 -2.929688 2.015625 -4.328125 C 1.242188 -5.734375 0.859375 -7.335938 0.859375 -9.140625 Z M 0.859375 -9.140625 "/></g></g></g><g fill="#1c2746" fill-opacity="1"><g transform="translate(333.910954, 73.518803)"><g><path d="M 17.40625 -18.234375 L 17.40625 0 L 12.953125 0 L 12.953125 -7.5 L 6.046875 -7.5 L 6.046875 0 L 1.609375 0 L 1.609375 -18.234375 L 6.046875 -18.234375 L 6.046875 -11.09375 L 12.953125 -11.09375 L 12.953125 -18.234375 Z M 17.40625 -18.234375 "/></g></g></g><g fill="#1c2746" fill-opacity="1"><g transform="translate(355.285105, 73.518803)"><g><path d="M 10.234375 0.1875 C 8.515625 0.1875 6.941406 -0.207031 5.515625 -1 C 4.085938 -1.800781 2.953125 -2.914062 2.109375 -4.34375 C 1.273438 -5.78125 0.859375 -7.390625 0.859375 -9.171875 C 0.859375 -10.953125 1.273438 -12.550781 2.109375 -13.96875 C 2.953125 -15.382812 4.085938 -16.488281 5.515625 -17.28125 C 6.941406 -18.082031 8.515625 -18.484375 10.234375 -18.484375 C 11.941406 -18.484375 13.507812 -18.082031 14.9375 -17.28125 C 16.375 -16.488281 17.5 -15.382812 18.3125 -13.96875 C 19.132812 -12.550781 19.546875 -10.953125 19.546875 -9.171875 C 19.546875 -7.390625 19.128906 -5.78125 18.296875 -4.34375 C 17.472656 -2.914062 16.347656 -1.800781 14.921875 -1 C 13.503906 -0.207031 11.941406 0.1875 10.234375 0.1875 Z M 10.234375 -3.875 C 11.679688 -3.875 12.84375 -4.359375 13.71875 -5.328125 C 14.59375 -6.296875 15.03125 -7.578125 15.03125 -9.171875 C 15.03125 -10.773438 14.59375 -12.054688 13.71875 -13.015625 C 12.84375 -13.984375 11.679688 -14.46875 10.234375 -14.46875 C 8.765625 -14.46875 7.59375 -13.988281 6.71875 -13.03125 C 5.84375 -12.082031 5.40625 -10.796875 5.40625 -9.171875 C 5.40625 -7.554688 5.84375 -6.269531 6.71875 -5.3125 C 7.59375 -4.351562 8.765625 -3.875 10.234375 -3.875 Z M 10.234375 -3.875 "/></g></g></g><g fill="#1c2746" fill-opacity="1"><g transform="translate(378.087666, 73.518803)"><g><path d="M 10.234375 0.1875 C 8.515625 0.1875 6.941406 -0.207031 5.515625 -1 C 4.085938 -1.800781 2.953125 -2.914062 2.109375 -4.34375 C 1.273438 -5.78125 0.859375 -7.390625 0.859375 -9.171875 C 0.859375 -10.953125 1.273438 -12.550781 2.109375 -13.96875 C 2.953125 -15.382812 4.085938 -16.488281 5.515625 -17.28125 C 6.941406 -18.082031 8.515625 -18.484375 10.234375 -18.484375 C 11.941406 -18.484375 13.507812 -18.082031 14.9375 -17.28125 C 16.375 -16.488281 17.5 -15.382812 18.3125 -13.96875 C 19.132812 -12.550781 19.546875 -10.953125 19.546875 -9.171875 C 19.546875 -7.390625 19.128906 -5.78125 18.296875 -4.34375 C 17.472656 -2.914062 16.347656 -1.800781 14.921875 -1 C 13.503906 -0.207031 11.941406 0.1875 10.234375 0.1875 Z M 10.234375 -3.875 C 11.679688 -3.875 12.84375 -4.359375 13.71875 -5.328125 C 14.59375 -6.296875 15.03125 -7.578125 15.03125 -9.171875 C 15.03125 -10.773438 14.59375 -12.054688 13.71875 -13.015625 C 12.84375 -13.984375 11.679688 -14.46875 10.234375 -14.46875 C 8.765625 -14.46875 7.59375 -13.988281 6.71875 -13.03125 C 5.84375 -12.082031 5.40625 -10.796875 5.40625 -9.171875 C 5.40625 -7.554688 5.84375 -6.269531 6.71875 -5.3125 C 7.59375 -4.351562 8.765625 -3.875 10.234375 -3.875 Z M 10.234375 -3.875 "/></g></g></g><g fill="#1c2746" fill-opacity="1"><g transform="translate(400.890227, 73.518803)"><g><path d="M 6.046875 -3.421875 L 11.875 -3.421875 L 11.875 0 L 1.609375 0 L 1.609375 -18.234375 L 6.046875 -18.234375 Z M 6.046875 -3.421875 "/></g></g></g><g fill="#1c2746" fill-opacity="1"><g transform="translate(101.864982, 108.25693)"><g><path d="M 4.40625 -2.5 L 8.65625 -2.5 L 8.65625 0 L 1.171875 0 L 1.171875 -13.296875 L 4.40625 -13.296875 Z M 4.40625 -2.5 "/></g></g></g><g fill="#1c2746" fill-opacity="1"><g transform="translate(118.881523, 108.25693)"><g><path d="M 4.40625 -13.296875 L 4.40625 0 L 1.171875 0 L 1.171875 -13.296875 Z M 4.40625 -13.296875 "/></g></g></g><g fill="#1c2746" fill-opacity="1"><g transform="translate(132.454541, 108.25693)"><g><path d="M 10.734375 -13.296875 L 10.734375 -10.703125 L 7.21875 -10.703125 L 7.21875 0 L 3.984375 0 L 3.984375 -10.703125 L 0.453125 -10.703125 L 0.453125 -13.296875 Z M 10.734375 -13.296875 "/></g></g></g><g fill="#1c2746" fill-opacity="1"><g transform="translate(151.628027, 108.25693)"><g><path d="M 10.734375 -13.296875 L 10.734375 -10.703125 L 7.21875 -10.703125 L 7.21875 0 L 3.984375 0 L 3.984375 -10.703125 L 0.453125 -10.703125 L 0.453125 -13.296875 Z M 10.734375 -13.296875 "/></g></g></g><g fill="#1c2746" fill-opacity="1"><g transform="translate(170.80151, 108.25693)"><g><path d="M 4.40625 -2.5 L 8.65625 -2.5 L 8.65625 0 L 1.171875 0 L 1.171875 -13.296875 L 4.40625 -13.296875 Z M 4.40625 -2.5 "/></g></g></g><g fill="#1c2746" fill-opacity="1"><g transform="translate(187.81805, 108.25693)"><g><path d="M 4.40625 -10.703125 L 4.40625 -8.015625 L 8.75 -8.015625 L 8.75 -5.515625 L 4.40625 -5.515625 L 4.40625 -2.59375 L 9.3125 -2.59375 L 9.3125 0 L 1.171875 0 L 1.171875 -13.296875 L 9.3125 -13.296875 L 9.3125 -10.703125 Z M 4.40625 -10.703125 "/></g></g></g><g fill="#1c2746" fill-opacity="1"><g transform="translate(206.045504, 108.25693)"><g/></g></g><g fill="#1c2746" fill-opacity="1"><g transform="translate(218.048106, 108.25693)"><g><path d="M 9.21875 -6.8125 C 9.988281 -6.65625 10.609375 -6.273438 11.078125 -5.671875 C 11.546875 -5.066406 11.78125 -4.378906 11.78125 -3.609375 C 11.78125 -2.503906 11.390625 -1.625 10.609375 -0.96875 C 9.835938 -0.320312 8.753906 0 7.359375 0 L 1.171875 0 L 1.171875 -13.296875 L 7.15625 -13.296875 C 8.507812 -13.296875 9.566406 -12.984375 10.328125 -12.359375 C 11.085938 -11.742188 11.46875 -10.90625 11.46875 -9.84375 C 11.46875 -9.0625 11.265625 -8.410156 10.859375 -7.890625 C 10.453125 -7.378906 9.90625 -7.019531 9.21875 -6.8125 Z M 4.40625 -7.921875 L 6.53125 -7.921875 C 7.0625 -7.921875 7.46875 -8.035156 7.75 -8.265625 C 8.039062 -8.492188 8.1875 -8.835938 8.1875 -9.296875 C 8.1875 -9.753906 8.039062 -10.101562 7.75 -10.34375 C 7.46875 -10.582031 7.0625 -10.703125 6.53125 -10.703125 L 4.40625 -10.703125 Z M 6.796875 -2.609375 C 7.335938 -2.609375 7.753906 -2.734375 8.046875 -2.984375 C 8.347656 -3.234375 8.5 -3.585938 8.5 -4.046875 C 8.5 -4.515625 8.34375 -4.878906 8.03125 -5.140625 C 7.726562 -5.410156 7.304688 -5.546875 6.765625 -5.546875 L 4.40625 -5.546875 L 4.40625 -2.609375 Z M 6.796875 -2.609375 "/></g></g></g><g fill="#1c2746" fill-opacity="1"><g transform="translate(238.50819, 108.25693)"><g><path d="M 4.40625 -2.5 L 8.65625 -2.5 L 8.65625 0 L 1.171875 0 L 1.171875 -13.296875 L 4.40625 -13.296875 Z M 4.40625 -2.5 "/></g></g></g><g fill="#1c2746" fill-opacity="1"><g transform="translate(255.524737, 108.25693)"><g><path d="M 9.453125 -2.34375 L 4.484375 -2.34375 L 3.6875 0 L 0.296875 0 L 5.109375 -13.296875 L 8.859375 -13.296875 L 13.671875 0 L 10.25 0 Z M 8.609375 -4.84375 L 6.96875 -9.71875 L 5.34375 -4.84375 Z M 8.609375 -4.84375 "/></g></g></g><g fill="#1c2746" fill-opacity="1"><g transform="translate(277.460634, 108.25693)"><g><path d="M 0.625 -6.671875 C 0.625 -7.984375 0.90625 -9.148438 1.46875 -10.171875 C 2.039062 -11.203125 2.832031 -12.003906 3.84375 -12.578125 C 4.863281 -13.160156 6.019531 -13.453125 7.3125 -13.453125 C 8.882812 -13.453125 10.234375 -13.035156 11.359375 -12.203125 C 12.484375 -11.367188 13.234375 -10.226562 13.609375 -8.78125 L 10.0625 -8.78125 C 9.789062 -9.34375 9.410156 -9.765625 8.921875 -10.046875 C 8.441406 -10.335938 7.890625 -10.484375 7.265625 -10.484375 C 6.273438 -10.484375 5.46875 -10.132812 4.84375 -9.4375 C 4.226562 -8.75 3.921875 -7.828125 3.921875 -6.671875 C 3.921875 -5.503906 4.226562 -4.570312 4.84375 -3.875 C 5.46875 -3.1875 6.273438 -2.84375 7.265625 -2.84375 C 7.890625 -2.84375 8.441406 -2.988281 8.921875 -3.28125 C 9.410156 -3.570312 9.789062 -3.992188 10.0625 -4.546875 L 13.609375 -4.546875 C 13.234375 -3.109375 12.484375 -1.972656 11.359375 -1.140625 C 10.234375 -0.316406 8.882812 0.09375 7.3125 0.09375 C 6.019531 0.09375 4.863281 -0.191406 3.84375 -0.765625 C 2.832031 -1.335938 2.039062 -2.132812 1.46875 -3.15625 C 0.90625 -4.1875 0.625 -5.359375 0.625 -6.671875 Z M 0.625 -6.671875 "/></g></g></g><g fill="#1c2746" fill-opacity="1"><g transform="translate(299.869539, 108.25693)"><g><path d="M 8.875 0 L 4.40625 -5.875 L 4.40625 0 L 1.171875 0 L 1.171875 -13.296875 L 4.40625 -13.296875 L 4.40625 -7.46875 L 8.84375 -13.296875 L 12.65625 -13.296875 L 7.5 -6.78125 L 12.84375 0 Z M 8.875 0 "/></g></g></g><g fill="#1c2746" fill-opacity="1"><g transform="translate(321.04861, 108.25693)"><g/></g></g><g fill="#1c2746" fill-opacity="1"><g transform="translate(333.051219, 108.25693)"><g><path d="M 9.21875 -6.8125 C 9.988281 -6.65625 10.609375 -6.273438 11.078125 -5.671875 C 11.546875 -5.066406 11.78125 -4.378906 11.78125 -3.609375 C 11.78125 -2.503906 11.390625 -1.625 10.609375 -0.96875 C 9.835938 -0.320312 8.753906 0 7.359375 0 L 1.171875 0 L 1.171875 -13.296875 L 7.15625 -13.296875 C 8.507812 -13.296875 9.566406 -12.984375 10.328125 -12.359375 C 11.085938 -11.742188 11.46875 -10.90625 11.46875 -9.84375 C 11.46875 -9.0625 11.265625 -8.410156 10.859375 -7.890625 C 10.453125 -7.378906 9.90625 -7.019531 9.21875 -6.8125 Z M 4.40625 -7.921875 L 6.53125 -7.921875 C 7.0625 -7.921875 7.46875 -8.035156 7.75 -8.265625 C 8.039062 -8.492188 8.1875 -8.835938 8.1875 -9.296875 C 8.1875 -9.753906 8.039062 -10.101562 7.75 -10.34375 C 7.46875 -10.582031 7.0625 -10.703125 6.53125 -10.703125 L 4.40625 -10.703125 Z M 6.796875 -2.609375 C 7.335938 -2.609375 7.753906 -2.734375 8.046875 -2.984375 C 8.347656 -3.234375 8.5 -3.585938 8.5 -4.046875 C 8.5 -4.515625 8.34375 -4.878906 8.03125 -5.140625 C 7.726562 -5.410156 7.304688 -5.546875 6.765625 -5.546875 L 4.40625 -5.546875 L 4.40625 -2.609375 Z M 6.796875 -2.609375 "/></g></g></g><g fill="#1c2746" fill-opacity="1"><g transform="translate(353.51129, 108.25693)"><g><path d="M 7.46875 0.125 C 6.21875 0.125 5.070312 -0.160156 4.03125 -0.734375 C 2.988281 -1.316406 2.160156 -2.128906 1.546875 -3.171875 C 0.929688 -4.210938 0.625 -5.382812 0.625 -6.6875 C 0.625 -7.988281 0.929688 -9.15625 1.546875 -10.1875 C 2.160156 -11.21875 2.988281 -12.023438 4.03125 -12.609375 C 5.070312 -13.191406 6.21875 -13.484375 7.46875 -13.484375 C 8.71875 -13.484375 9.859375 -13.191406 10.890625 -12.609375 C 11.929688 -12.023438 12.753906 -11.21875 13.359375 -10.1875 C 13.960938 -9.15625 14.265625 -7.988281 14.265625 -6.6875 C 14.265625 -5.382812 13.957031 -4.210938 13.34375 -3.171875 C 12.738281 -2.128906 11.921875 -1.316406 10.890625 -0.734375 C 9.859375 -0.160156 8.71875 0.125 7.46875 0.125 Z M 7.46875 -2.828125 C 8.519531 -2.828125 9.363281 -3.175781 10 -3.875 C 10.644531 -4.582031 10.96875 -5.519531 10.96875 -6.6875 C 10.96875 -7.863281 10.644531 -8.800781 10 -9.5 C 9.363281 -10.195312 8.519531 -10.546875 7.46875 -10.546875 C 6.394531 -10.546875 5.535156 -10.195312 4.890625 -9.5 C 4.253906 -8.8125 3.9375 -7.875 3.9375 -6.6875 C 3.9375 -5.507812 4.253906 -4.570312 4.890625 -3.875 C 5.535156 -3.175781 6.394531 -2.828125 7.46875 -2.828125 Z M 7.46875 -2.828125 "/></g></g></g><g fill="#1c2746" fill-opacity="1"><g transform="translate(376.374282, 108.25693)"><g><path d="M 7.46875 0.125 C 6.21875 0.125 5.070312 -0.160156 4.03125 -0.734375 C 2.988281 -1.316406 2.160156 -2.128906 1.546875 -3.171875 C 0.929688 -4.210938 0.625 -5.382812 0.625 -6.6875 C 0.625 -7.988281 0.929688 -9.15625 1.546875 -10.1875 C 2.160156 -11.21875 2.988281 -12.023438 4.03125 -12.609375 C 5.070312 -13.191406 6.21875 -13.484375 7.46875 -13.484375 C 8.71875 -13.484375 9.859375 -13.191406 10.890625 -12.609375 C 11.929688 -12.023438 12.753906 -11.21875 13.359375 -10.1875 C 13.960938 -9.15625 14.265625 -7.988281 14.265625 -6.6875 C 14.265625 -5.382812 13.957031 -4.210938 13.34375 -3.171875 C 12.738281 -2.128906 11.921875 -1.316406 10.890625 -0.734375 C 9.859375 -0.160156 8.71875 0.125 7.46875 0.125 Z M 7.46875 -2.828125 C 8.519531 -2.828125 9.363281 -3.175781 10 -3.875 C 10.644531 -4.582031 10.96875 -5.519531 10.96875 -6.6875 C 10.96875 -7.863281 10.644531 -8.800781 10 -9.5 C 9.363281 -10.195312 8.519531 -10.546875 7.46875 -10.546875 C 6.394531 -10.546875 5.535156 -10.195312 4.890625 -9.5 C 4.253906 -8.8125 3.9375 -7.875 3.9375 -6.6875 C 3.9375 -5.507812 4.253906 -4.570312 4.890625 -3.875 C 5.535156 -3.175781 6.394531 -2.828125 7.46875 -2.828125 Z M 7.46875 -2.828125 "/></g></g></g><g fill="#1c2746" fill-opacity="1"><g transform="translate(399.237274, 108.25693)"><g><path d="M 8.875 0 L 4.40625 -5.875 L 4.40625 0 L 1.171875 0 L 1.171875 -13.296875 L 4.40625 -13.296875 L 4.40625 -7.46875 L 8.84375 -13.296875 L 12.65625 -13.296875 L 7.5 -6.78125 L 12.84375 0 Z M 8.875 0 "/></g></g></g></svg>